<svg id="logo_7" data-name="logo 7" xmlns="http://www.w3.org/2000/svg" width="364" height="79" viewBox="0 0 364 79">
  <defs>
    <style>
      .cls-1 {
        fill: #fff;
      }

      .cls-1, .cls-2 {
        fill-rule: evenodd;
      }

      .cls-2 {
        fill: none;
        stroke: #fff;
        stroke-width: 2px;
      }
    </style>
  </defs>
  <path id="vector" class="cls-1" d="M126.127,58.552a27.835,27.835,0,0,0,5.8,3.4,14.185,14.185,0,0,0,5.5,1.184,14.883,14.883,0,0,0,6.225-1.337,15.162,15.162,0,0,0,5.156-3.857,18.733,18.733,0,0,0,3.513-6.187,24.838,24.838,0,0,0,1.3-8.325q0-8.478-3.628-13.557t-11.037-5.079a14.118,14.118,0,0,0-6.683,1.718,37.466,37.466,0,0,0-6,3.934h-0.153l-0.3-4.736h-1.986V79.175h2.291V58.552Zm0-25.205a36.477,36.477,0,0,1,6.683-4.774,12.77,12.77,0,0,1,6-1.642,12.055,12.055,0,0,1,5.729,1.26,10.567,10.567,0,0,1,3.857,3.475,14.921,14.921,0,0,1,2.139,5.232,31.1,31.1,0,0,1,.649,6.531,24.08,24.08,0,0,1-.993,7.065,16.9,16.9,0,0,1-2.826,5.576,13.311,13.311,0,0,1-4.316,3.628,11.592,11.592,0,0,1-5.461,1.3,14.5,14.5,0,0,1-5.155-1.146,23.971,23.971,0,0,1-6.3-3.9V33.347Zm40.1,18.751a17.987,17.987,0,0,0,3.514,6,15.32,15.32,0,0,0,22.761,0,18.036,18.036,0,0,0,3.513-6,23.376,23.376,0,0,0,1.3-8.058,23.954,23.954,0,0,0-1.3-8.173,17.987,17.987,0,0,0-3.513-6.034,15.319,15.319,0,0,0-22.761,0,17.939,17.939,0,0,0-3.514,6.034,23.93,23.93,0,0,0-1.3,8.173A23.353,23.353,0,0,0,166.226,52.1Zm2.215-14.97a17.219,17.219,0,0,1,2.9-5.423,13.153,13.153,0,0,1,4.353-3.513,12.3,12.3,0,0,1,10.846,0A13.156,13.156,0,0,1,190.9,31.7a17.258,17.258,0,0,1,2.9,5.423,21.5,21.5,0,0,1,1.069,6.912,21.056,21.056,0,0,1-1.069,6.912,17.394,17.394,0,0,1-2.9,5.347,12.711,12.711,0,0,1-4.354,3.475,12.644,12.644,0,0,1-10.846,0,12.707,12.707,0,0,1-4.353-3.475,17.354,17.354,0,0,1-2.9-5.347,21.03,21.03,0,0,1-1.069-6.912A21.477,21.477,0,0,1,168.441,37.128Zm38.648,20.966a24.022,24.022,0,0,0,5.805,3.552,18.273,18.273,0,0,0,7.485,1.489,14.47,14.47,0,0,0,5.079-.84A11.22,11.22,0,0,0,229.2,60.08a9.561,9.561,0,0,0,3.093-7.027,8.38,8.38,0,0,0-1.107-4.468,9.9,9.9,0,0,0-2.826-2.979,18.5,18.5,0,0,0-3.934-2.024q-2.215-.84-4.353-1.68-1.682-.611-3.247-1.3A16.6,16.6,0,0,1,214,39.037a7.391,7.391,0,0,1-2.024-2.062,5.17,5.17,0,0,1-.763-2.864,6.669,6.669,0,0,1,.534-2.635,6.915,6.915,0,0,1,1.6-2.291,7.685,7.685,0,0,1,2.75-1.642,11.634,11.634,0,0,1,3.972-.611,11.371,11.371,0,0,1,4.964.993,23.408,23.408,0,0,1,3.9,2.368l1.374-1.833a17.208,17.208,0,0,0-4.659-2.635,14.963,14.963,0,0,0-5.423-1.031,14.754,14.754,0,0,0-4.964.764,10.7,10.7,0,0,0-3.59,2.062,8.391,8.391,0,0,0-2.177,3.017,9.213,9.213,0,0,0-.726,3.628,7.182,7.182,0,0,0,1.07,4.01,9.67,9.67,0,0,0,2.788,2.788,20.656,20.656,0,0,0,3.819,1.986q2.1,0.841,4.239,1.6,1.6,0.612,3.246,1.3a12.411,12.411,0,0,1,2.94,1.719,9.433,9.433,0,0,1,2.139,2.368,5.834,5.834,0,0,1,.84,3.17,7.4,7.4,0,0,1-2.368,5.423,8.489,8.489,0,0,1-2.9,1.718,11.637,11.637,0,0,1-4.048.649,15.3,15.3,0,0,1-6.874-1.375,24.119,24.119,0,0,1-5.041-3.361Zm39.106-5.5a22.373,22.373,0,0,0,.382,4.315,8.31,8.31,0,0,0,1.375,3.323,6.6,6.6,0,0,0,2.635,2.139,9.9,9.9,0,0,0,4.162.764,11.153,11.153,0,0,0,2.483-.382,26.723,26.723,0,0,0,3.17-.993l-0.764-1.986a21.281,21.281,0,0,1-2.368.84A8.432,8.432,0,0,1,254.9,61a7.445,7.445,0,0,1-3.246-.611,4.673,4.673,0,0,1-1.948-1.68,6.933,6.933,0,0,1-.954-2.559,18.322,18.322,0,0,1-.268-3.246V27.847h10.846V25.709H248.486V15.016H246.5L246.2,25.709l-5.805.305v1.833H246.2V52.594Zm22.379,5.156a8.193,8.193,0,0,0,2.291,3.055,9.615,9.615,0,0,0,3.361,1.757,14.009,14.009,0,0,0,4.048.573,14.978,14.978,0,0,0,7.027-1.757,39.925,39.925,0,0,0,6.263-4.048h0.153l0.306,4.888h1.986V38.541a24.829,24.829,0,0,0-.535-5.232,12.375,12.375,0,0,0-1.833-4.392A9.208,9.208,0,0,0,288.2,25.9a11.565,11.565,0,0,0-5.347-1.107,18.234,18.234,0,0,0-4.277.5,24.542,24.542,0,0,0-3.781,1.222,21.382,21.382,0,0,0-3.055,1.566q-1.338.841-2.177,1.451l1.222,1.833a18.413,18.413,0,0,1,2.1-1.451,25.889,25.889,0,0,1,2.787-1.451,18.429,18.429,0,0,1,3.285-1.108,16.082,16.082,0,0,1,3.742-.42,8.693,8.693,0,0,1,4.621,1.107,7.825,7.825,0,0,1,2.788,2.9,12.067,12.067,0,0,1,1.337,4.048,24.167,24.167,0,0,1,.267,4.468Q279.344,40.832,273.539,44t-5.805,9.28A10.832,10.832,0,0,0,268.574,57.75Zm2.712-8.784a9.667,9.667,0,0,1,3.628-3.322,26.249,26.249,0,0,1,6.645-2.482,80.148,80.148,0,0,1,10.158-1.719v13.29a34.5,34.5,0,0,1-6.8,4.7A14.342,14.342,0,0,1,278.427,61a11.609,11.609,0,0,1-3.17-.42,7.357,7.357,0,0,1-2.635-1.337,6.162,6.162,0,0,1-1.8-2.406,9.059,9.059,0,0,1-.649-3.628A8.162,8.162,0,0,1,271.286,48.966Zm39.372,13.252h2.292V36.86q2.214-5.423,4.964-7.6a8.624,8.624,0,0,1,5.271-2.177,9.6,9.6,0,0,1,1.68.114,8.024,8.024,0,0,1,1.528.5L327,25.556a6.615,6.615,0,0,0-1.757-.611,9.858,9.858,0,0,0-1.757-.153,8.913,8.913,0,0,0-5.957,2.215,19.494,19.494,0,0,0-4.43,5.576H312.95l-0.306-6.874h-1.986v36.51Zm23.525,14.054-0.611,2.139a7.763,7.763,0,0,0,3.514.764,8.644,8.644,0,0,0,4.239-1.031,12.089,12.089,0,0,0,3.322-2.712,17.714,17.714,0,0,0,2.483-3.781,31.564,31.564,0,0,0,1.718-4.239l14.665-41.7h-2.444L352.82,49.692q-0.841,2.291-1.719,5.041t-1.8,5.194H349q-1.071-2.443-2.139-5.194t-1.986-5.041l-9.318-23.983h-2.6l15.123,37.426L347.015,66.5a23.651,23.651,0,0,1-3.934,7.447,7.3,7.3,0,0,1-5.843,2.941,7.1,7.1,0,0,1-1.642-.191,12.012,12.012,0,0,1-1.413-.42h0Z"/>
  <g id="letter">
    <path id="edges_right" data-name="edges right" class="cls-1" d="M81,30V25l5,2.5Z"/>
    <path id="edges" class="cls-1" d="M7,25v5L2,27.5Z"/>
    <path id="border" class="cls-2" d="M1,27V76s0.357,3,3,3H85a2.881,2.881,0,0,0,3-2.914V27l-4.894-3.115V0H5.092V23.885Z"/>
    <path id="middle_line" data-name="middle line" class="cls-2" d="M2,26S23.819,40.377,46.084,53.428C67.293,65.862,88,77,88,77"/>
    <path id="side_line" data-name="side line" class="cls-2" d="M45,53L86,27"/>
  </g>
</svg>
